<svg xmlns="http://www.w3.org/2000/svg" width="22" height="26" viewBox="0 0 22 26" fill="none">
    <path d="M7.34347 2.70906L7.8104 3.29598H7.8104L7.34347 2.70906ZM14.6567 2.70906L14.1898 3.29598L14.6567 2.70906ZM16.6834 10.6667V11.4167H17.4334V10.6667H16.6834ZM5.31675 10.6667H4.56675V11.4167H5.31675V10.6667ZM5.01675 10.6667V11.4167H5.76675V10.6667H5.01675ZM16.9834 10.6667H16.2334V11.4167H16.9834V10.6667ZM14.8435 2.47429L15.3104 1.88738V1.88737L14.8435 2.47429ZM7.15669 2.47429L6.68976 1.88738V1.88738L7.15669 2.47429ZM14.1044 16.1076L14.6265 16.646L14.6265 16.646L14.1044 16.1076ZM14.2121 16.0032L14.7342 16.5416L15.2726 16.0195L14.7505 15.4811L14.2121 16.0032ZM10.6756 19.4326L11.1977 19.971L10.6756 19.4326ZM9.07443 19.4326L9.59654 18.8941L9.59654 18.8941L9.07443 19.4326ZM7.89558 18.2894L7.37347 18.8279H7.37347L7.89558 18.2894ZM7.78789 18.185L7.24947 17.6629L6.72736 18.2013L7.26578 18.7234L7.78789 18.185ZM7.99674 17.9696L8.51885 17.4312L7.98042 16.9091L7.45831 17.4475L7.99674 17.9696ZM8.10442 18.0741L8.62653 17.5356L8.62653 17.5356L8.10442 18.0741ZM9.28328 19.2172L9.80539 18.6788H9.80539L9.28328 19.2172ZM10.4667 19.2172L9.94462 18.6788H9.94461L10.4667 19.2172ZM13.8956 15.8922L13.3735 15.3538V15.3538L13.8956 15.8922ZM14.0033 15.7878L14.5417 15.2657L14.0196 14.7273L13.4812 15.2494L14.0033 15.7878ZM6.87653 2.12214C5.53868 3.18649 4.56675 4.92632 4.56675 7.57057H6.06675C6.06675 5.33598 6.86581 4.04747 7.8104 3.29598L6.87653 2.12214ZM11.0001 0.73335C9.79089 0.73335 8.18937 1.07769 6.87653 2.12214L7.8104 3.29598C8.79252 2.51464 10.0361 2.23335 11.0001 2.23335V0.73335ZM15.1236 2.12214C13.8108 1.07769 12.2093 0.73335 11.0001 0.73335V2.23335C11.9641 2.23335 13.2076 2.51464 14.1898 3.29598L15.1236 2.12214ZM17.4334 7.57057C17.4334 4.92632 16.4615 3.18649 15.1236 2.12214L14.1898 3.29598C15.1344 4.04747 15.9334 5.33598 15.9334 7.57057H17.4334ZM17.4334 10.6667V7.57057H15.9334V10.6667H17.4334ZM5.31675 11.4167H16.6834V9.91668H5.31675V11.4167ZM4.56675 7.57057V10.6667H6.06675V7.57057H4.56675ZM2.70379 11.4167H5.01675V9.91668H2.70379V11.4167ZM2.41675 11.8002C2.41675 11.5242 2.60666 11.4167 2.70379 11.4167V9.91668C1.65543 9.91668 0.916748 10.8241 0.916748 11.8002H2.41675ZM2.41675 23.5343V11.8002H0.916748V23.5343H2.41675ZM2.70379 23.9167C2.60571 23.9167 2.41675 23.8093 2.41675 23.5343H0.916748C0.916748 24.5114 1.65638 25.4167 2.70379 25.4167V23.9167ZM19.2964 23.9167H2.70379V25.4167H19.2964V23.9167ZM19.5834 23.5343C19.5834 23.8093 19.3945 23.9167 19.2964 23.9167V25.4167C20.3438 25.4167 21.0834 24.5114 21.0834 23.5343H19.5834ZM19.5834 11.8002V23.5343H21.0834V11.8002H19.5834ZM19.2964 11.4167C19.3935 11.4167 19.5834 11.5242 19.5834 11.8002H21.0834C21.0834 10.8241 20.3447 9.91668 19.2964 9.91668V11.4167ZM16.9834 11.4167H19.2964V9.91668H16.9834V11.4167ZM16.2334 7.57057V10.6667H17.7334V7.57057H16.2334ZM14.3765 3.06121C15.3997 3.87523 16.2334 5.25397 16.2334 7.57057H17.7334C17.7334 4.8445 16.727 3.01436 15.3104 1.88738L14.3765 3.06121ZM11.0001 1.93335C12.0132 1.93335 13.3283 2.22728 14.3765 3.06121L15.3104 1.88737C13.9314 0.790253 12.2582 0.43335 11.0001 0.43335V1.93335ZM7.62363 3.06121C8.67185 2.22728 9.98696 1.93335 11.0001 1.93335V0.43335C9.74196 0.43335 8.06881 0.790253 6.68976 1.88738L7.62363 3.06121ZM5.76675 7.57057C5.76675 5.25397 6.60044 3.87523 7.62363 3.06121L6.68976 1.88738C5.27318 3.01436 4.26675 4.8445 4.26675 7.57057H5.76675ZM5.76675 10.6667V7.57057H4.26675V10.6667H5.76675ZM14.6265 16.646L14.7342 16.5416L13.69 15.4648L13.5823 15.5692L14.6265 16.646ZM11.1977 19.971L14.6265 16.646L13.5823 15.5692L10.1535 18.8941L11.1977 19.971ZM8.55232 19.971C9.28931 20.6856 10.4607 20.6856 11.1977 19.971L10.1535 18.8941C9.9983 19.0446 9.7517 19.0446 9.59654 18.8941L8.55232 19.971ZM7.37347 18.8279L8.55232 19.971L9.59654 18.8941L8.41769 17.751L7.37347 18.8279ZM7.26578 18.7234L7.37347 18.8279L8.41769 17.751L8.31 17.6466L7.26578 18.7234ZM7.45831 17.4475L7.24947 17.6629L8.32632 18.7071L8.53516 18.4918L7.45831 17.4475ZM8.62653 17.5356L8.51885 17.4312L7.47463 18.5081L7.58231 18.6125L8.62653 17.5356ZM9.80539 18.6788L8.62653 17.5356L7.58231 18.6125L8.76117 19.7556L9.80539 18.6788ZM9.94461 18.6788C9.90583 18.7164 9.84418 18.7164 9.80539 18.6788L8.76117 19.7556C9.38178 20.3574 10.3682 20.3574 10.9888 19.7556L9.94461 18.6788ZM13.3735 15.3538L9.94462 18.6788L10.9888 19.7556L14.4177 16.4307L13.3735 15.3538ZM13.4812 15.2494L13.3735 15.3538L14.4177 16.4307L14.5254 16.3263L13.4812 15.2494ZM14.7505 15.4811L14.5417 15.2657L13.4648 16.3099L13.6737 16.5253L14.7505 15.4811Z" fill="url(#paint0_linear_5954_176587)"/>
    <defs>
        <linearGradient id="paint0_linear_5954_176587" x1="12.0781" y1="0.755302" x2="12.0781" y2="24.3365" gradientUnits="userSpaceOnUse">
            <stop stop-color="#87F696"/>
            <stop offset="1" stop-color="#42844B"/>
        </linearGradient>
    </defs>
</svg>