<svg xmlns="http://www.w3.org/2000/svg" width="27" height="23" viewBox="0 0 27 23" fill="none">
    <path fill-rule="evenodd" clip-rule="evenodd" d="M15.1661 0.975464L15.5411 1.62498L17.6339 5.24998H21H21.75V5.99998V9.99998H20.25V6.74998H1.75V21.25H20.25V18H21.75V22V22.75H21H1H0.25V22V5.99998V5.24998H1H7.76234L14.5165 1.35046L15.1661 0.975464ZM10.784 5.23747L15.8979 5.24302L14.617 3.0245L10.784 5.23747ZM25.5221 11.5384L26.0605 11.0163L25.0163 9.93947L24.4779 10.4616L21.049 13.7865C20.9521 13.8806 20.7979 13.8806 20.701 13.7865L19.5221 12.6434L18.9837 12.1213L17.9395 13.1981L18.4779 13.7202L19.6567 14.8634C20.3355 15.5216 21.4145 15.5216 22.0933 14.8634L25.5221 11.5384Z" fill="url(#paint0_linear_5954_176707)"/>
    <defs>
        <linearGradient id="paint0_linear_5954_176707" x1="14.6458" y1="0.578564" x2="14.6458" y2="22.4438" gradientUnits="userSpaceOnUse">
            <stop stop-color="#87F696"/>
            <stop offset="1" stop-color="#42844B"/>
        </linearGradient>
    </defs>
</svg>