<svg xmlns="http://www.w3.org/2000/svg" width="30" height="30" viewBox="0 0 45 45" fill="none">
    <path d="M29.1244 13.1677L28.8434 12.4724L28.836 12.4754L28.8287 12.4785C27.3352 13.1192 25.7915 13.7718 24.2288 14.4324C19.3785 16.4827 14.3448 18.6106 10.0565 20.7035C9.44685 20.9384 8.99073 21.2038 8.68729 21.5191C8.35349 21.866 8.1998 22.2841 8.26425 22.7147C8.32143 23.0967 8.5342 23.3702 8.67349 23.5178C8.74899 23.5978 8.82098 23.6598 8.87503 23.7026C8.90245 23.7243 8.92632 23.742 8.94513 23.7554C8.95456 23.7621 8.9628 23.7678 8.96968 23.7724L8.97897 23.7787L8.98283 23.7812L8.98456 23.7824L8.98537 23.7829C8.98576 23.7831 8.98615 23.7834 9.39465 23.1544L8.98615 23.7834L9.07047 23.8382L9.16624 23.8688L12.8409 25.0437L12.8409 25.0437L12.8461 25.0453C13.8106 25.346 14.584 25.3385 15.1414 25.2358C15.4179 25.1848 15.6357 25.1115 15.7927 25.0454C15.8711 25.0125 15.9342 24.9814 15.9818 24.9558C16.0056 24.9431 16.0256 24.9317 16.0416 24.9222L16.0628 24.9093L16.0713 24.904L16.0749 24.9017L16.0766 24.9006L16.0774 24.9001C16.0778 24.8998 16.0782 24.8996 15.6697 24.2706L16.0782 24.8996L16.0902 24.8918L16.1019 24.8835L23.0016 20.0183L18.6012 24.3732C18.0221 24.9051 17.7649 25.5189 17.861 26.1464C17.9479 26.7146 18.3024 27.1238 18.559 27.3532C19.3091 28.0383 20.7052 29.0483 21.9038 29.886C22.5118 30.3109 23.0819 30.7003 23.5129 30.9936C23.5885 31.0451 23.6595 31.0934 23.7256 31.1383C23.8488 31.2221 23.955 31.2943 24.0419 31.3537C24.1085 31.3992 24.1617 31.4358 24.2011 31.4632C24.2306 31.4838 24.2459 31.4948 24.2519 31.499C24.4506 31.6608 24.9422 32.0052 25.5249 32.2883C26.0858 32.5608 26.9298 32.8771 27.7102 32.6969L27.7103 32.6969C28.5569 32.5014 28.981 31.8451 29.1791 31.3774C29.2815 31.1354 29.3402 30.9085 29.3736 30.7442C29.3905 30.661 29.4015 30.591 29.4085 30.5395C29.412 30.5136 29.4145 30.4922 29.4163 30.4759L29.4167 30.4722L30.7709 21.2662L30.772 21.2589L30.7729 21.2516C30.9695 19.7049 31.1944 18.2151 31.3782 17.0031L31.4018 16.8473C31.5704 15.7358 31.7073 14.8336 31.7378 14.4001C31.7884 13.7919 31.6841 13.2488 31.3502 12.8411C31.0123 12.4287 30.552 12.2921 30.1883 12.2592C29.8287 12.2267 29.4893 12.2864 29.262 12.3418C29.1437 12.3707 29.0442 12.4013 28.9726 12.4254C28.9367 12.4374 28.9073 12.448 28.8855 12.4562L28.8585 12.4664L28.8494 12.47L28.846 12.4713L28.8446 12.4719L28.844 12.4721C28.8437 12.4723 28.8434 12.4724 29.1244 13.1677ZM24.9035 17.9177C24.9035 17.9179 24.9034 17.9182 24.9034 17.9184L24.9035 17.9177Z" stroke="url(#paint1_linear_5954_176374)" stroke-width="1.5"/>
    <defs>
        <linearGradient id="paint0_linear_5954_176374" x1="2.60762" y1="1.74569" x2="36.2462" y2="49.6792" gradientUnits="userSpaceOnUse">
            <stop stop-color="#87F696"/>
            <stop offset="1" stop-color="#47C058" stop-opacity="0.4"/>
        </linearGradient>
        <linearGradient id="paint1_linear_5954_176374" x1="21.2705" y1="12.6537" x2="21.2705" y2="31.7328" gradientUnits="userSpaceOnUse">
            <stop stop-color="#87F696"/>
            <stop offset="1" stop-color="#42844B"/>
        </linearGradient>
    </defs>
</svg>