<svg xmlns="http://www.w3.org/2000/svg" width="25" height="25" viewBox="0 0 25 25" fill="none">
    <path fill-rule="evenodd" clip-rule="evenodd" d="M9.60409 2.08337V1.33337H8.10409V2.08337V3.4167H3.12492C2.13541 3.4167 1.33325 4.21886 1.33325 5.20837V6.02087V6.77087V9.6667V11.1667V15.9167V17.4167V20.3125V21.0625V21.875C1.33325 22.8645 2.13541 23.6667 3.12492 23.6667L6.54159 23.6667H7.29159H17.7083H18.4583L21.8749 23.6667C22.8644 23.6667 23.6666 22.8645 23.6666 21.875L23.6666 21.0625V20.3125V6.77087V6.02087L23.6666 5.20837C23.6666 4.21886 22.8644 3.4167 21.8749 3.4167H16.8958V2.08337V1.33337H15.3958V2.08337V3.4167H9.60409V2.08337ZM2.83325 6.77087V6.02087V5.20837C2.83325 5.04729 2.96384 4.9167 3.12492 4.9167H8.10409V6.25004V7.00004H9.60409V6.25004V4.9167H15.3958V6.25004V7.00004H16.8958V6.25004V4.9167H21.8749C22.036 4.9167 22.1666 5.04729 22.1666 5.20837V9.6667H16.8958H15.3958H9.60409H8.10409H2.83325V6.77087ZM2.83325 15.9167V11.1667H8.10409V15.9167H2.83325ZM2.83325 20.3125V17.4167H8.10409V22.1667H3.12492C2.96384 22.1667 2.83325 22.0361 2.83325 21.875V21.0625V20.3125ZM21.8749 22.1667H16.8958V17.4167H22.1666V21.875C22.1666 22.0361 22.036 22.1667 21.8749 22.1667ZM15.3958 22.1667V17.4167H9.60409V22.1667H15.3958ZM22.1666 15.9167H16.8958V11.1667H22.1666V15.9167ZM15.3958 15.9167V11.1667H9.60409V15.9167H15.3958Z" fill="url(#paint0_linear_5954_176002)"/>
    <defs>
        <linearGradient id="paint0_linear_5954_176002" x1="12.4999" y1="1.33337" x2="12.4999" y2="23.6667" gradientUnits="userSpaceOnUse">
            <stop stop-color="#87F696"/>
            <stop offset="1" stop-color="#336A3B"/>
        </linearGradient>
    </defs>
</svg>