<svg xmlns="http://www.w3.org/2000/svg" width="26" height="26" viewBox="0 0 26 26" fill="none">
    <path fill-rule="evenodd" clip-rule="evenodd" d="M12.7194 2.04244L13.001 1.73729L13.2826 2.04244C14.057 2.88163 15.3015 3.08948 16.3066 2.54747L16.6705 2.35123L16.8398 2.73572C17.2997 3.77958 18.4079 4.37978 19.5334 4.19463L19.9435 4.12718L19.9797 4.55176C20.0767 5.68643 20.9282 6.6122 22.0508 6.80344L22.4655 6.87408L22.3613 7.2919C22.0861 8.39515 22.5901 9.5451 23.5878 10.0905L23.9621 10.2951L23.7275 10.6576C23.1103 11.6114 23.2138 12.8615 23.9795 13.7008L24.2699 14.0191L23.9325 14.2841C23.0387 14.9861 22.731 16.2025 23.1833 17.2451L23.3551 17.6411L22.9549 17.7802C21.8801 18.1538 21.1932 19.2061 21.2837 20.3403L21.3178 20.7677L20.9 20.7689C19.7602 20.7721 18.7669 21.5459 18.4848 22.6502L18.3801 23.0602L17.9883 22.9265C16.9081 22.5578 15.7153 22.9676 15.0898 23.9224L14.861 24.2715L14.5341 24.0177C13.632 23.3174 12.37 23.3174 11.4679 24.0177L11.141 24.2715L10.9123 23.9224C10.2867 22.9676 9.09399 22.5578 8.01375 22.9265L7.62194 23.0602L7.51722 22.6502C7.23517 21.5459 6.24187 20.7721 5.10209 20.7689L4.68429 20.7677L4.71837 20.3403C4.80882 19.2061 4.12192 18.1538 3.04715 17.7802L2.647 17.6411L2.81881 17.2451C3.2711 16.2025 2.96331 14.9861 2.06961 14.2841L1.73221 14.0191L2.02259 13.7008C2.78831 12.8615 2.89181 11.6114 2.27455 10.6576L2.03997 10.2951L2.41425 10.0905C3.41195 9.5451 3.91595 8.39515 3.6408 7.2919L3.5366 6.87408L3.95123 6.80344C5.07387 6.6122 5.92539 5.68643 6.02234 4.55176L6.05861 4.12718L6.46861 4.19463C7.59417 4.37978 8.70233 3.77958 9.16222 2.73572L9.33161 2.35123L9.69549 2.54747C10.7005 3.08948 11.9451 2.88163 12.7194 2.04244ZM12.2661 0.321845C12.6621 -0.107281 13.34 -0.107282 13.7359 0.321844L14.385 1.02521C14.6947 1.36088 15.1926 1.44402 15.5946 1.22722L16.435 0.773965C16.9487 0.496933 17.5895 0.71686 17.8248 1.25096L18.2125 2.13096C18.3965 2.5485 18.8397 2.78858 19.29 2.71452L20.2333 2.55934C20.8085 2.46472 21.3424 2.88015 21.392 3.46095L21.4743 4.42407C21.5131 4.87794 21.8537 5.24825 22.3027 5.32475L23.249 5.48595C23.8229 5.5837 24.1922 6.14895 24.0514 6.71373L23.8167 7.65488C23.7066 8.09618 23.9082 8.55616 24.3073 8.77431L25.1541 9.23721C25.6643 9.51611 25.8299 10.1698 25.514 10.658L24.9868 11.4725C24.7399 11.8541 24.7813 12.3541 25.0876 12.6898L25.7408 13.4058C26.1326 13.8352 26.0769 14.5071 25.6197 14.8662L24.859 15.4637C24.5015 15.7445 24.3784 16.2311 24.5593 16.6481L24.9456 17.5385C25.1771 18.0721 24.906 18.69 24.3566 18.881L23.4474 19.197C23.0175 19.3465 22.7428 19.7674 22.7789 20.2211L22.8559 21.1866C22.9022 21.7673 22.4444 22.2645 21.8619 22.2661L20.9042 22.2689C20.4483 22.2701 20.051 22.5797 19.9382 23.0214L19.6996 23.9556C19.5552 24.5208 18.9598 24.8429 18.4077 24.6545L17.5039 24.3461C17.0718 24.1986 16.5947 24.3626 16.3444 24.7444L15.8188 25.5467C15.4988 26.0351 14.8303 26.1466 14.3691 25.7886L13.6143 25.2026C13.2534 24.9224 12.7486 24.9224 12.3878 25.2026L11.633 25.7886C11.1718 26.1466 10.5033 26.0351 10.1833 25.5467L9.65763 24.7444C9.4074 24.3626 8.9303 24.1986 8.49821 24.3461L7.59435 24.6545C7.0423 24.8429 6.44683 24.5208 6.30248 23.9556L6.06388 23.0214C5.95105 22.5796 5.55374 22.2701 5.09782 22.2689L4.14011 22.2661C3.55762 22.2645 3.09982 21.7673 3.14612 21.1866L3.22312 20.2211C3.2593 19.7674 2.98454 19.3465 2.55463 19.197L1.6455 18.881C1.09604 18.69 0.824945 18.0721 1.05646 17.5385L1.44272 16.6481C1.62364 16.2311 1.50053 15.7445 1.14304 15.4637L0.382314 14.8662C-0.0748321 14.5071 -0.130517 13.8352 0.261274 13.4058L0.91446 12.6898C1.22075 12.3541 1.26215 11.8541 1.01524 11.4725L0.488099 10.658C0.172193 10.1698 0.337777 9.51611 0.847974 9.23721L1.69476 8.77431C2.09384 8.55616 2.29544 8.09618 2.18538 7.65488L1.95067 6.71373C1.80981 6.14895 2.17921 5.5837 2.75302 5.48595L3.69934 5.32475C4.14839 5.24825 4.489 4.87794 4.52778 4.42407L4.61006 3.46095C4.65969 2.88015 5.19356 2.46472 5.76875 2.55934L6.71209 2.71452C7.16231 2.78858 7.60558 2.5485 7.78953 2.13096L8.17723 1.25096C8.41254 0.71686 9.05333 0.496934 9.56702 0.773965L10.4075 1.22722C10.8095 1.44403 11.3073 1.36088 11.6171 1.02521L12.2661 0.321845ZM18.2895 10.3034L18.8087 9.76216L17.7263 8.72374L17.2071 9.26496L10.8991 15.8404C10.8007 15.943 10.6367 15.943 10.5383 15.8404L8.0646 13.2619L7.5454 12.7207L6.46295 13.7591L6.98216 14.3003L9.45582 16.8788C10.1446 17.5969 11.2927 17.5969 11.9815 16.8788L18.2895 10.3034Z" fill="url(#paint0_linear_5954_176020)"/>
    <defs>
        <linearGradient id="paint0_linear_5954_176020" x1="14.5027" y1="-0.473898" x2="14.5027" y2="25.6332" gradientUnits="userSpaceOnUse">
            <stop stop-color="#87F696"/>
            <stop offset="1" stop-color="#42844B"/>
        </linearGradient>
    </defs>
</svg>