<svg xmlns="http://www.w3.org/2000/svg" width="28" height="28" viewBox="0 0 28 28" fill="none">
    <path d="M23.4877 24.4325V25.1825H24.2377V24.4325H23.4877ZM4.51392 24.4325H3.76392V25.1825H4.51392V24.4325ZM14.0008 12.2419C16.7437 12.2419 18.9672 10.0183 18.9672 7.27547H17.4672C17.4672 9.18991 15.9152 10.7419 14.0008 10.7419V12.2419ZM9.03442 7.27547C9.03442 10.0183 11.258 12.2419 14.0008 12.2419V10.7419C12.0864 10.7419 10.5344 9.18991 10.5344 7.27547H9.03442ZM14.0008 2.30908C11.258 2.30908 9.03442 4.53261 9.03442 7.27547H10.5344C10.5344 5.36104 12.0864 3.80908 14.0008 3.80908V2.30908ZM18.9672 7.27547C18.9672 4.53261 16.7437 2.30908 14.0008 2.30908V3.80908C15.9152 3.80908 17.4672 5.36104 17.4672 7.27547H18.9672ZM24.2377 24.4325C24.2377 18.7789 19.6545 14.1956 14.0008 14.1956V15.6956C18.826 15.6956 22.7377 19.6073 22.7377 24.4325H24.2377ZM4.51392 25.1825H23.4877V23.6825H4.51392V25.1825ZM14.0008 14.1956C8.34714 14.1956 3.76392 18.7789 3.76392 24.4325H5.26392C5.26392 19.6073 9.17556 15.6956 14.0008 15.6956V14.1956Z" fill="url(#paint0_linear_5954_176274)"/>
    <defs>
        <linearGradient id="paint0_linear_5954_176274" x1="15.0965" y1="2.66949" x2="15.0965" y2="24.132" gradientUnits="userSpaceOnUse">
            <stop stop-color="#87F696"/>
            <stop offset="1" stop-color="#42844B"/>
        </linearGradient>
    </defs>
</svg>