<svg width="24" height="25" viewBox="0 0 24 25" fill="none" xmlns="http://www.w3.org/2000/svg">
    <path fill-rule="evenodd" clip-rule="evenodd" d="M1.25 4.25H2H12H22H22.75V5V12.5H21.25V6.5L12.45 13.1L12 13.4375L11.55 13.1L2.75 6.5V12.5V19.25H12V20.75H2H1.25V20V12.5V5V4.25ZM4.25 5.75L12 11.5625L19.75 5.75H12H4.25ZM22.5857 15.9685L18.5857 20.9685L18.1171 21.5542L17.5315 21.0857L15.0315 19.0857L15.9685 17.9143L17.8829 19.4458L21.4143 15.0315L22.5857 15.9685Z" fill="url(#paint0_linear_5954_176671)"/>
    <defs>
        <linearGradient id="paint0_linear_5954_176671" x1="13.2416" y1="3.93458" x2="13.2416" y2="21.3109" gradientUnits="userSpaceOnUse">
            <stop stop-color="#87F696"/>
            <stop offset="1" stop-color="#42844B"/>
        </linearGradient>
    </defs>
</svg>
