<svg xmlns="http://www.w3.org/2000/svg" width="26" height="21" viewBox="0 0 26 21" fill="none">
    <path d="M8.91856 20C17.2205 20 21.7613 13.0743 21.7613 7.06831C21.7613 6.87159 21.7613 6.67576 21.7481 6.48082C22.6315 5.83744 24 4.12823 24 4.12823L22.9 3.80043L23.3919 2.32946C22.506 2.85891 21.5366 3.23201 20.5257 3.43265C19.8452 2.70399 18.9451 2.2215 17.9648 2.05982C16.9846 1.89815 15.9787 2.06631 15.1028 2.53829C14.227 3.01026 13.53 3.75974 13.1199 4.67074C12.7097 5.58173 12.6091 6.60346 12.8337 7.57781C11.0392 7.48717 9.28361 7.01756 7.681 6.19949C6.07838 5.38141 4.66453 4.23314 3.5312 2.82922C2.954 3.82977 2.77722 5.01421 3.03684 6.1414C3.29647 7.26858 3.97298 8.25374 4.92864 8.89633C4.21029 8.87513 2.6276 9.13727 2 8.78472C2.00028 9.83406 3.65 11 3.65 11C3.65 11 5.85 12.6614 6.5012 12.8403C5.85 13.2152 3.77635 13.3464 3.1 13.2152C4.2 14.3228 4.5307 15.1302 5.85 15.4305C6.7307 15.684 7.73817 16.0566 8.68008 16.0746C7.74424 16.8153 6.67254 17.363 5.52631 17.6862C4.38007 18.0095 3.18178 18.1019 2 17.9584C3.1 19.3071 6.46593 19.9998 8.91856 19.9964" stroke="url(#paint0_linear_5954_176717)" stroke-width="1.5"/>
    <defs>
        <linearGradient id="paint0_linear_5954_176717" x1="14.2705" y1="1.6719" x2="14.2705" y2="19.7469" gradientUnits="userSpaceOnUse">
            <stop stop-color="#87F696"/>
            <stop offset="1" stop-color="#42844B"/>
        </linearGradient>
    </defs>
</svg>