<svg xmlns="http://www.w3.org/2000/svg" width="24" height="20" viewBox="0 0 24 20" fill="none">
    <path d="M19.5847 2.93567L19.4705 2.75973L19.2817 2.66856C17.9189 2.0108 16.4688 1.53004 14.9526 1.26149L14.4237 1.16781L14.1647 1.63845C14.0533 1.84096 13.9377 2.07779 13.8316 2.31153C12.6083 2.16924 11.3901 2.16897 10.1779 2.31116C10.0704 2.07829 9.95679 1.84692 9.85663 1.65417L9.60298 1.16604L9.06119 1.26134C7.53479 1.52983 6.08366 2.01073 4.72846 2.66946L4.53912 2.76149L4.42534 2.93861C1.70964 7.16575 0.97052 11.3136 1.33788 15.3899L1.36741 15.7175L1.62841 15.9177C3.4396 17.3069 5.19487 18.1559 6.91866 18.7136L7.44539 18.884L7.76342 18.4309C8.19108 17.8215 8.57563 17.1676 8.9067 16.4801C10.9528 17.0266 13.0536 17.0286 15.0884 16.485C15.419 17.1707 15.8027 17.823 16.2293 18.4308L16.5474 18.8841L17.0742 18.7135C18.7956 18.1563 20.5619 17.3074 22.3658 15.9166L22.6235 15.7179L22.6545 15.394C23.1062 10.6708 21.9349 6.55644 19.5847 2.93567ZM9.73494 10.7763L9.73483 10.7763V10.7893C9.73483 11.658 9.16138 12.1513 8.68581 12.1513C8.21782 12.1513 7.63674 11.6551 7.63674 10.7893C7.63674 9.9177 8.2026 9.42731 8.68581 9.42731C9.17167 9.42731 9.74964 9.93078 9.73494 10.7763ZM16.3763 10.7763L16.3762 10.7763V10.7893C16.3762 11.661 15.8104 12.1513 15.3272 12.1513C14.8587 12.1513 14.2771 11.6545 14.2771 10.7893C14.2771 9.9183 14.8434 9.42731 15.3272 9.42731C15.8131 9.42731 16.391 9.93078 16.3763 10.7763Z" stroke="url(#paint0_linear_5954_176696)" stroke-width="1.5"/>
    <defs>
        <linearGradient id="paint0_linear_5954_176696" x1="13.155" y1="1.70836" x2="13.155" y2="17.775" gradientUnits="userSpaceOnUse">
            <stop stop-color="#87F696"/>
            <stop offset="1" stop-color="#42844B"/>
        </linearGradient>
    </defs>
</svg>