<svg xmlns="http://www.w3.org/2000/svg" width="24" height="25" viewBox="0 0 24 25" fill="none">
    <path d="M5.75 3.0332C5.75 2.42041 5.97768 1.84224 6.36839 1.42362C6.75747 1.00675 7.27366 0.783203 7.8 0.783203H16.2C16.7263 0.783203 17.2425 1.00675 17.6316 1.42362C18.0223 1.84224 18.25 2.42041 18.25 3.0332V21.0332C18.25 21.646 18.0223 22.2242 17.6316 22.6428C17.2425 23.0597 16.7263 23.2832 16.2 23.2832H7.8C7.27366 23.2832 6.75747 23.0597 6.36839 22.6428C5.97768 22.2242 5.75 21.646 5.75 21.0332V3.0332ZM10.4618 16.0408L11.0101 16.5525L10.4618 16.0408C10.0648 16.4661 9.85 17.0325 9.85 17.6132C9.85 18.1939 10.0648 18.7603 10.4618 19.1856C10.8603 19.6126 11.4124 19.8632 12 19.8632C12.5876 19.8632 13.1397 19.6126 13.5382 19.1856C13.9352 18.7603 14.15 18.1939 14.15 17.6132C14.15 17.0325 13.9352 16.4661 13.5382 16.0408C13.1397 15.6138 12.5876 15.3632 12 15.3632C11.4124 15.3632 10.8603 15.6138 10.4618 16.0408Z" stroke="url(#paint0_linear_5954_176661)" stroke-width="1.5"/>
    <defs>
        <linearGradient id="paint0_linear_5954_176661" x1="12.8085" y1="-0.404262" x2="12.8085" y2="23.6957" gradientUnits="userSpaceOnUse">
            <stop stop-color="#87F696"/>
            <stop offset="1" stop-color="#42844B"/>
        </linearGradient>
    </defs>
</svg>