<svg
        id="guaranteedScoreboard"
        viewBox="0 0 110 110"
        fill="none"
        width="25px"
        height="25px"
        xmlns="http://www.w3.org/2000/svg"
>
    <path
            d="M96.25 19.1498C82.935 19.1498 69.96 14.3877 57.25 4.75749C56.6009 4.2658 55.8114 4 55 4C54.1886 4 53.3991 4.2658 52.75 4.75749C40.04 14.3877 27.065 19.1498 13.75 19.1498C12.7554 19.1498 11.8016 19.5489 11.0983 20.2591C10.3951 20.9694 10 21.9328 10 22.9373V49.4495C10 74.7042 24.79 93.2627 53.625 104.736C54.5086 105.088 55.4914 105.088 56.375 104.736C85.21 93.2627 100 74.6992 100 49.4495V22.9373C100 21.9328 99.6049 20.9694 98.9017 20.2591C98.1984 19.5489 97.2446 19.1498 96.25 19.1498ZM78.785 40.8797L48.785 68.6544C48.0724 69.3134 47.1354 69.6692 46.1694 69.6476C45.2034 69.6259 44.283 69.2285 43.6 68.5382L31.1 55.9134C30.7316 55.5666 30.4361 55.1485 30.2311 54.6839C30.0261 54.2193 29.9159 53.7178 29.907 53.2093C29.8982 52.7007 29.9908 52.1956 30.1794 51.724C30.368 51.2524 30.6487 50.824 31.0048 50.4643C31.3609 50.1047 31.7851 49.8211 32.252 49.6306C32.719 49.4401 33.2191 49.3466 33.7226 49.3556C34.2261 49.3645 34.7227 49.4759 35.1827 49.6829C35.6427 49.8899 36.0567 50.1883 36.4 50.5604L46.365 60.6199L73.715 35.2945C74.4483 34.6154 75.4187 34.2584 76.4126 34.302C77.4066 34.3456 78.3427 34.7861 79.015 35.5268C79.6873 36.2674 80.0408 37.2475 79.9977 38.2514C79.9545 39.2552 79.5183 40.2007 78.785 40.8797Z"
            fill="url(#paint0_radial_251_16747)"
            fill-opacity="0.6"
    />
    <defs>
        <radialGradient
                id="paint0_radial_251_16747"
                cx="0"
                cy="0"
                r="1"
                gradientUnits="userSpaceOnUse"
                gradientTransform="translate(55.1142 42.785) rotate(122.869) scale(74.3342 69.9236)"
        >
            <stop stop-color="#45924F" />
            <stop offset="1" stop-color="#27545F" />
        </radialGradient>
    </defs>
</svg>