<svg xmlns="http://www.w3.org/2000/svg" width="30" height="30" viewBox="0 0 45 45" fill="none">
    <mask id="path-2-inside-1_5954_176294" fill="white">
        <path fill-rule="evenodd" clip-rule="evenodd" d="M22.0649 17.6874C22.0649 18.1328 21.5264 18.3559 21.2114 18.0409L17.6477 14.4773C17.4415 14.271 17.4542 13.9315 17.6879 13.7569C18.8028 12.924 20.1177 12.3743 21.5271 12.1721C21.8159 12.1306 22.0649 12.3617 22.0649 12.6534V17.6874ZM23.4246 17.6885C23.4246 18.1339 23.9631 18.357 24.2781 18.042L27.8346 14.4856C28.0409 14.2792 28.0281 13.9395 27.7943 13.7647C26.6926 12.9411 25.3844 12.3797 23.9626 12.1737C23.6737 12.1319 23.4244 12.363 23.4244 12.6549L23.4246 17.6885ZM16.7467 32.8398C20.4806 34.8084 25.0181 34.805 28.745 32.8398L31.9883 36.0827C32.1419 36.2364 32.1882 36.4674 32.1049 36.6683C32.0217 36.8687 31.826 36.9997 31.6086 36.9997L13.8833 36.9999C13.6662 36.9999 13.4703 36.8689 13.387 36.6685C13.3038 36.4675 13.3499 36.2366 13.5036 36.0829L16.7467 32.8398ZM29.5173 25.5853C29.3425 25.819 29.0028 25.8319 28.7964 25.6255L25.24 22.069C24.925 21.754 25.1481 21.2155 25.5935 21.2155H30.6271C30.9189 21.2155 31.1501 21.4648 31.1082 21.7536C30.9021 23.1754 30.3408 24.4836 29.5173 25.5853ZM14.3824 19.318C14.3409 19.6069 14.5721 19.856 14.8639 19.856H19.8971C20.3426 19.856 20.5657 19.3174 20.2507 19.0025L16.69 15.4421C16.4833 15.2354 16.143 15.2487 15.9685 15.4832C15.8903 15.5884 15.8143 15.6957 15.7406 15.805C15.6213 15.982 15.6451 16.2127 15.7444 16.4016C15.9801 16.8499 16.0134 17.3872 15.8173 17.8736C15.6272 18.3438 15.2491 18.6988 14.7891 18.8652C14.5883 18.9379 14.4152 19.0925 14.3845 19.3038L14.3824 19.318ZM25.5935 19.8566C25.1481 19.8566 24.925 19.3181 25.24 19.0031L28.7963 15.4467C29.0027 15.2403 29.3424 15.2532 29.5172 15.487C30.3408 16.5887 30.902 17.8968 31.1081 19.3185C31.15 19.6073 30.9188 19.8566 30.627 19.8566H25.5935ZM23.4244 28.418C23.4244 28.7098 23.6738 28.941 23.9626 28.8991C25.3843 28.693 26.6926 28.1318 27.7942 27.3082C28.028 27.1334 28.0408 26.7937 27.8344 26.5873L24.278 23.0309C23.963 22.7159 23.4244 22.939 23.4244 23.3845L23.4244 28.418ZM16.6947 25.6255C16.4884 25.8319 16.1487 25.819 15.9739 25.5853C15.1503 24.4836 14.589 23.1754 14.3829 21.7536C14.3411 21.4648 14.5722 21.2155 14.8641 21.2155L19.8976 21.2155C20.3431 21.2155 20.5661 21.7541 20.2512 22.069L16.6947 25.6255ZM17.6547 26.5873C17.4483 26.7937 17.4611 27.1334 17.6949 27.3082C18.7966 28.1318 20.1048 28.693 21.5265 28.8991C21.8154 28.941 22.0647 28.7098 22.0647 28.418L22.0647 23.3845C22.0647 22.939 21.5261 22.7159 21.2111 23.0309L17.6547 26.5873ZM13.2547 17.6572H13.2541L13.254 17.6571L10.1299 17.7226C9.74448 17.7305 9.47625 17.3419 9.62076 16.9844L10.5606 14.6584C10.7051 14.3009 11.168 14.2075 11.4397 14.4811C11.6174 14.66 11.9385 14.9831 12.2853 15.3323C12.8561 15.9069 13.4968 16.5519 13.6841 16.7404C14.017 17.0755 13.7865 17.6462 13.3142 17.656L13.2553 17.6572H13.2551H13.2549H13.2547Z"/>
    </mask>
    <path d="M21.2114 18.0409L20.5043 18.748L20.5043 18.748L21.2114 18.0409ZM17.6477 14.4773L18.3549 13.7702V13.7702L17.6477 14.4773ZM17.6879 13.7569L18.2864 14.558L17.6879 13.7569ZM21.5271 12.1721L21.3851 11.1822L21.3851 11.1822L21.5271 12.1721ZM24.2781 18.042L24.9852 18.7491V18.7491L24.2781 18.042ZM23.4246 17.6885L22.4246 17.6885V17.6885L23.4246 17.6885ZM27.8346 14.4856L27.1275 13.7785V13.7785L27.8346 14.4856ZM27.7943 13.7647L28.3931 12.9638L28.3931 12.9638L27.7943 13.7647ZM23.9626 12.1737L23.8192 13.1634H23.8192L23.9626 12.1737ZM23.4244 12.6549L24.4244 12.6548V12.6548L23.4244 12.6549ZM28.745 32.8398L29.452 32.1326L28.9307 31.6113L28.2785 31.9552L28.745 32.8398ZM16.7467 32.8398L17.2131 31.9552L16.5609 31.6113L16.0396 32.1327L16.7467 32.8398ZM31.9883 36.0827L32.6954 35.3757L32.6953 35.3756L31.9883 36.0827ZM32.1049 36.6683L33.0285 37.0516L33.0285 37.0515L32.1049 36.6683ZM31.6086 36.9997V35.9997H31.6085L31.6086 36.9997ZM13.8833 36.9999V37.9999H13.8833L13.8833 36.9999ZM13.387 36.6685L12.4629 37.0508L12.4637 37.0527L13.387 36.6685ZM13.5036 36.0829L14.2107 36.79L13.5036 36.0829ZM29.5173 25.5853L28.7163 24.9865L28.7163 24.9865L29.5173 25.5853ZM31.1082 21.7536L30.1186 21.6102V21.6102L31.1082 21.7536ZM14.3824 19.318L13.3927 19.175L13.3926 19.1758L14.3824 19.318ZM20.2507 19.0025L19.5436 19.7096V19.7096L20.2507 19.0025ZM16.69 15.4421L15.983 16.1492L15.983 16.1492L16.69 15.4421ZM15.9685 15.4832L15.1661 14.8865V14.8865L15.9685 15.4832ZM15.7406 15.805L14.9114 15.246L14.9114 15.246L15.7406 15.805ZM15.7444 16.4016L14.8592 16.8669L14.8592 16.8669L15.7444 16.4016ZM15.8173 17.8736L16.7444 18.2484L16.7447 18.2476L15.8173 17.8736ZM14.7891 18.8652L14.4488 17.9249L14.4488 17.9249L14.7891 18.8652ZM14.3845 19.3038L13.3949 19.1599L13.3947 19.1608L14.3845 19.3038ZM25.24 19.0031L24.5329 18.296V18.296L25.24 19.0031ZM28.7963 15.4467L29.5034 16.1538L29.5034 16.1538L28.7963 15.4467ZM29.5172 15.487L30.3181 14.8882V14.8882L29.5172 15.487ZM31.1081 19.3185L30.1184 19.4619V19.4619L31.1081 19.3185ZM23.9626 28.8991L24.1061 29.8888H24.1061L23.9626 28.8991ZM23.4244 28.418L24.4244 28.418V28.418L23.4244 28.418ZM27.7942 27.3082L28.393 28.1091L28.393 28.1091L27.7942 27.3082ZM27.8344 26.5873L27.1273 27.2945L27.1273 27.2945L27.8344 26.5873ZM23.4244 23.3845L22.4244 23.3845L23.4244 23.3845ZM15.9739 25.5853L15.173 26.184L15.173 26.184L15.9739 25.5853ZM16.6947 25.6255L17.4018 26.3326L17.4018 26.3326L16.6947 25.6255ZM14.3829 21.7536L13.3933 21.8971V21.8971L14.3829 21.7536ZM14.8641 21.2155L14.8641 22.2155H14.8641L14.8641 21.2155ZM19.8976 21.2155L19.8976 20.2155L19.8976 21.2155ZM20.2512 22.069L19.5441 21.3619L20.2512 22.069ZM17.6949 27.3082L17.0961 28.1091H17.0961L17.6949 27.3082ZM21.5265 28.8991L21.67 27.9095L21.67 27.9095L21.5265 28.8991ZM22.0647 28.418L21.0647 28.418V28.418L22.0647 28.418ZM22.0647 23.3845L23.0647 23.3845L22.0647 23.3845ZM13.2541 17.6572L12.597 18.411L12.8794 18.6572H13.2541V17.6572ZM13.254 17.6571L13.9112 16.9034L13.6197 16.6493L13.2331 16.6574L13.254 17.6571ZM10.1299 17.7226L10.1506 18.7223L10.1508 18.7223L10.1299 17.7226ZM9.62076 16.9844L10.5479 17.3591L10.5479 17.359L9.62076 16.9844ZM10.5606 14.6584L9.63348 14.2836L9.63341 14.2837L10.5606 14.6584ZM11.4397 14.4811L10.7302 15.1858L10.7303 15.1859L11.4397 14.4811ZM12.2853 15.3323L11.5759 16.0371L12.2853 15.3323ZM13.6841 16.7404L14.3936 16.0357L14.3934 16.0354L13.6841 16.7404ZM13.3142 17.656L13.2935 16.6562L13.2935 16.6562L13.3142 17.656ZM13.2553 17.6572V18.6572H13.2657L13.2761 18.657L13.2553 17.6572ZM20.5043 18.748C21.4492 19.693 23.0649 19.0237 23.0649 17.6874H21.0649C21.0649 17.2419 21.6035 17.0188 21.9185 17.3338L20.5043 18.748ZM16.9406 15.1844L20.5043 18.748L21.9185 17.3338L18.3549 13.7702L16.9406 15.1844ZM17.0894 12.9557C16.3319 13.5216 16.3356 14.5794 16.9406 15.1844L18.3549 13.7702C18.5473 13.9627 18.5765 14.3413 18.2864 14.558L17.0894 12.9557ZM21.3851 11.1822C19.8094 11.4083 18.3376 12.0232 17.0894 12.9557L18.2864 14.558C19.2679 13.8247 20.4261 13.3403 21.6691 13.1619L21.3851 11.1822ZM23.0649 12.6534C23.0649 11.7974 22.3197 11.0481 21.3851 11.1822L21.6691 13.1619C21.3121 13.2131 21.0649 12.926 21.0649 12.6534H23.0649ZM23.0649 17.6874V12.6534H21.0649V17.6874H23.0649ZM23.571 17.3349C23.886 17.0199 24.4246 17.243 24.4246 17.6885L22.4246 17.6885C22.4246 19.0248 24.0403 19.6941 24.9852 18.7491L23.571 17.3349ZM27.1275 13.7785L23.571 17.3349L24.9852 18.7491L28.5417 15.1927L27.1275 13.7785ZM27.1956 14.5657C26.9063 14.3494 26.9347 13.9712 27.1275 13.7785L28.5417 15.1927C29.1472 14.5872 29.1499 13.5296 28.3931 12.9638L27.1956 14.5657ZM23.8192 13.1634C25.0709 13.3447 26.2234 13.8389 27.1956 14.5657L28.3931 12.9638C27.1617 12.0433 25.6979 11.4147 24.1059 11.1841L23.8192 13.1634ZM24.4244 12.6548C24.4245 12.9273 24.1771 13.2152 23.8192 13.1634L24.106 11.1841C23.1703 11.0485 22.4244 11.7987 22.4244 12.6549L24.4244 12.6548ZM24.4246 17.6885L24.4244 12.6548L22.4244 12.6549L22.4246 17.6885L24.4246 17.6885ZM28.2785 31.9552C24.8433 33.7667 20.6548 33.7698 17.2131 31.9552L16.2803 33.7244C20.3063 35.8471 25.1929 35.8433 29.2114 33.7243L28.2785 31.9552ZM32.6953 35.3756L29.452 32.1326L28.0379 33.5469L31.2812 36.7899L32.6953 35.3756ZM33.0285 37.0515C33.2674 36.4756 33.1343 35.8146 32.6954 35.3757L31.2811 36.7898C31.1496 36.6583 31.109 36.4591 31.1812 36.2852L33.0285 37.0515ZM31.6086 37.9997C32.231 37.9997 32.7906 37.6247 33.0285 37.0516L31.1812 36.285C31.2527 36.1127 31.4211 35.9997 31.6086 35.9997V37.9997ZM13.8833 37.9999L31.6086 37.9997L31.6085 35.9997L13.8833 35.9999L13.8833 37.9999ZM12.4637 37.0527C12.7018 37.6248 13.2611 37.9999 13.8833 37.9999V35.9999C14.0713 35.9999 14.2389 36.113 14.3102 36.2844L12.4637 37.0527ZM12.7965 35.3758C12.357 35.8153 12.2252 36.4761 12.4629 37.0508L14.311 36.2862C14.3825 36.4589 14.3428 36.6579 14.2107 36.79L12.7965 35.3758ZM16.0396 32.1327L12.7965 35.3758L14.2107 36.79L17.4538 33.5469L16.0396 32.1327ZM28.0893 26.3326C28.6948 26.9381 29.7524 26.9409 30.3182 26.184L28.7163 24.9865C28.9326 24.6972 29.3108 24.7256 29.5035 24.9184L28.0893 26.3326ZM24.5329 22.7761L28.0893 26.3326L29.5035 24.9184L25.9471 21.3619L24.5329 22.7761ZM25.5935 20.2155C24.2572 20.2155 23.5879 21.8312 24.5329 22.7761L25.9471 21.3619C26.2621 21.6769 26.039 22.2155 25.5935 22.2155V20.2155ZM30.6271 20.2155H25.5935V22.2155H30.6271V20.2155ZM32.0979 21.8971C32.2335 20.9615 31.4833 20.2155 30.6271 20.2155V22.2155C30.3546 22.2155 30.0667 21.9681 30.1186 21.6102L32.0979 21.8971ZM30.3182 26.184C31.2387 24.9527 31.8671 23.4888 32.0979 21.8971L30.1186 21.6102C29.9371 22.8619 29.443 24.0145 28.7163 24.9865L30.3182 26.184ZM14.8639 18.856C15.1363 18.856 15.4236 19.103 15.3722 19.4602L13.3926 19.1758C13.2583 20.1107 14.0079 20.856 14.8639 20.856V18.856ZM19.8971 18.856H14.8639V20.856H19.8971V18.856ZM19.5436 19.7096C19.2286 19.3946 19.4517 18.856 19.8971 18.856V20.856C21.2335 20.856 21.9028 19.2403 20.9578 18.2953L19.5436 19.7096ZM15.983 16.1492L19.5436 19.7096L20.9578 18.2953L17.3971 14.7349L15.983 16.1492ZM16.771 16.08C16.555 16.3703 16.176 16.3422 15.983 16.1492L17.3971 14.7349C16.7907 14.1285 15.7309 14.127 15.1661 14.8865L16.771 16.08ZM16.5698 16.364C16.6348 16.2675 16.7019 16.1728 16.771 16.08L15.1661 14.8865C15.0787 15.004 14.9938 15.1239 14.9114 15.246L16.5698 16.364ZM16.6296 15.9363C16.6399 15.9559 16.6577 15.9976 16.66 16.0654C16.6624 16.1391 16.6452 16.2521 16.5698 16.364L14.9114 15.246C14.5157 15.833 14.6569 16.482 14.8592 16.8669L16.6296 15.9363ZM16.7447 18.2476C17.0521 17.4854 17.0002 16.6414 16.6296 15.9363L14.8592 16.8669C14.96 17.0585 14.9748 17.289 14.8898 17.4996L16.7447 18.2476ZM15.1294 19.8055C15.852 19.544 16.4461 18.9862 16.7444 18.2484L14.8902 17.4988C14.8082 17.7014 14.6462 17.8535 14.4488 17.9249L15.1294 19.8055ZM15.3741 19.4477C15.3546 19.5817 15.291 19.6772 15.2394 19.7302C15.1918 19.7791 15.1503 19.798 15.1294 19.8055L14.4488 17.9249C14.0395 18.073 13.4969 18.4582 13.3949 19.1599L15.3741 19.4477ZM15.3721 19.4611L15.3742 19.4469L13.3947 19.1608L13.3927 19.175L15.3721 19.4611ZM24.5329 18.296C23.5879 19.2409 24.2572 20.8566 25.5935 20.8566V18.8566C26.039 18.8566 26.2621 19.3952 25.9471 19.7102L24.5329 18.296ZM28.0892 14.7396L24.5329 18.296L25.9471 19.7102L29.5034 16.1538L28.0892 14.7396ZM30.3181 14.8882C29.7524 14.1314 28.6947 14.1341 28.0892 14.7396L29.5034 16.1538C29.3107 16.3466 28.9325 16.375 28.7162 16.0857L30.3181 14.8882ZM32.0978 19.175C31.867 17.5833 31.2386 16.1196 30.3181 14.8882L28.7162 16.0857C29.4429 17.0578 29.937 18.2103 30.1184 19.4619L32.0978 19.175ZM30.627 20.8566C31.4832 20.8566 32.2334 20.1106 32.0978 19.175L30.1184 19.4619C30.0666 19.104 30.3545 18.8566 30.627 18.8566V20.8566ZM25.5935 20.8566H30.627V18.8566H25.5935V20.8566ZM23.8191 27.9095C24.1771 27.8576 24.4244 28.1455 24.4244 28.418L22.4244 28.418C22.4244 29.2742 23.1704 30.0244 24.1061 29.8888L23.8191 27.9095ZM27.1955 26.5072C26.2235 27.2339 25.0709 27.728 23.8191 27.9095L24.1061 29.8888C25.6978 29.6581 27.1617 29.0296 28.393 28.1091L27.1955 26.5072ZM27.1273 27.2945C26.9346 27.1017 26.9062 26.7235 27.1955 26.5072L28.393 28.1091C29.1498 27.5433 29.147 26.4857 28.5415 25.8802L27.1273 27.2945ZM23.5709 23.738L27.1273 27.2945L28.5415 25.8802L24.9851 22.3238L23.5709 23.738ZM24.4244 23.3845C24.4244 23.8299 23.8859 24.053 23.5709 23.738L24.9851 22.3238C24.0402 21.3789 22.4244 22.0481 22.4244 23.3845L24.4244 23.3845ZM24.4244 28.418L24.4244 23.3845L22.4244 23.3845L22.4244 28.418L24.4244 28.418ZM15.173 26.184C15.7388 26.9409 16.7964 26.9381 17.4018 26.3326L15.9876 24.9184C16.1804 24.7256 16.5585 24.6972 16.7748 24.9865L15.173 26.184ZM13.3933 21.8971C13.624 23.4888 14.2525 24.9527 15.173 26.184L16.7748 24.9865C16.0482 24.0145 15.5541 22.8619 15.3726 21.6102L13.3933 21.8971ZM14.8641 20.2155C14.0079 20.2155 13.2577 20.9615 13.3933 21.8971L15.3726 21.6102C15.4245 21.9681 15.1366 22.2155 14.8641 22.2155L14.8641 20.2155ZM19.8976 20.2155L14.8641 20.2155L14.8641 22.2155L19.8976 22.2155L19.8976 20.2155ZM20.9583 22.7761C21.9032 21.8312 21.234 20.2155 19.8976 20.2155L19.8976 22.2155C19.4522 22.2155 19.2291 21.6769 19.5441 21.3619L20.9583 22.7761ZM17.4018 26.3326L20.9583 22.7761L19.5441 21.3619L15.9876 24.9184L17.4018 26.3326ZM18.2937 26.5072C18.583 26.7235 18.5545 27.1017 18.3618 27.2945L16.9476 25.8802C16.3421 26.4857 16.3393 27.5433 17.0961 28.1091L18.2937 26.5072ZM21.67 27.9095C20.4183 27.728 19.2657 27.2339 18.2937 26.5072L17.0961 28.1091C18.3275 29.0296 19.7913 29.658 21.3831 29.8888L21.67 27.9095ZM21.0647 28.418C21.0647 28.1455 21.312 27.8576 21.67 27.9095L21.3831 29.8888C22.3187 30.0244 23.0647 29.2742 23.0647 28.418L21.0647 28.418ZM21.0647 23.3845L21.0647 28.418L23.0647 28.418L23.0647 23.3845L21.0647 23.3845ZM21.9182 23.738C21.6032 24.053 21.0647 23.8299 21.0647 23.3845L23.0647 23.3845C23.0647 22.0481 21.449 21.3789 20.504 22.3238L21.9182 23.738ZM18.3618 27.2945L21.9182 23.738L20.504 22.3238L16.9476 25.8802L18.3618 27.2945ZM13.2541 18.6572H13.2547V16.6572H13.2541V18.6572ZM12.5969 18.4109L12.597 18.411L13.9112 16.9034L13.9112 16.9034L12.5969 18.4109ZM10.1508 18.7223L13.275 18.6569L13.2331 16.6574L10.109 16.7228L10.1508 18.7223ZM8.69363 16.6096C8.27993 17.6331 9.04787 18.7452 10.1506 18.7223L10.1092 16.7228C10.4411 16.7159 10.6726 17.0506 10.5479 17.3591L8.69363 16.6096ZM9.63341 14.2837L8.69358 16.6097L10.5479 17.359L11.4878 15.033L9.63341 14.2837ZM12.1492 13.7763C11.3714 12.9934 10.0469 13.2609 9.63348 14.2836L11.4877 15.0332C11.3633 15.3409 10.9645 15.4217 10.7302 15.1858L12.1492 13.7763ZM12.9948 14.6276C12.6479 14.2784 12.3269 13.9552 12.1491 13.7763L10.7303 15.1859C10.908 15.3647 11.229 15.6879 11.5759 16.0371L12.9948 14.6276ZM14.3934 16.0354C14.2062 15.8471 13.5656 15.2022 12.9948 14.6276L11.5759 16.0371C12.1465 16.6116 12.7874 17.2567 12.9749 17.4454L14.3934 16.0354ZM13.3349 18.6557C14.6865 18.6277 15.346 16.9945 14.3936 16.0357L12.9747 17.4451C12.688 17.1565 12.8864 16.6646 13.2935 16.6562L13.3349 18.6557ZM13.2761 18.657L13.335 18.6557L13.2935 16.6562L13.2346 16.6574L13.2761 18.657ZM13.2551 18.6572H13.2553V16.6572H13.2551V18.6572ZM13.2549 18.6572H13.2551V16.6572H13.2549V18.6572ZM13.2547 18.6572H13.2549V16.6572H13.2547V18.6572Z" fill="url(#paint1_linear_5954_176294)" mask="url(#path-2-inside-1_5954_176294)"/>
    <path fill-rule="evenodd" clip-rule="evenodd" d="M33.4189 20.5318C33.4189 26.3484 28.7036 31.0637 22.8871 31.0637C17.0705 31.0637 12.3552 26.3484 12.3552 20.5318C12.3552 19.9399 12.4041 19.3594 12.4979 18.794L11.5424 18.4516C11.4194 19.1264 11.3552 19.8216 11.3552 20.5318C11.3552 26.9007 16.5182 32.0637 22.8871 32.0637C29.2559 32.0637 34.4189 26.9007 34.4189 20.5318C34.4189 14.163 29.2559 9 22.8871 9C18.5885 9 14.8393 11.3519 12.856 14.8391L13.8132 15.1821C15.6458 12.0804 19.0235 10 22.8871 10C28.7036 10 33.4189 14.7153 33.4189 20.5318Z" fill="url(#paint2_linear_5954_176294)"/>
    <defs>
<!--        <linearGradient id="paint0_linear_5954_176294" x1="2.60762" y1="1.74569" x2="36.2462" y2="49.6792" gradientUnits="userSpaceOnUse">-->
<!--            <stop stop-color="#87F696"/>-->
<!--            <stop offset="1" stop-color="#47C058" stop-opacity="0.4"/>-->
<!--        </linearGradient>-->
        <linearGradient id="paint1_linear_5954_176294" x1="22.1666" y1="11.7146" x2="22.1666" y2="36.6508" gradientUnits="userSpaceOnUse">
            <stop stop-color="#87F696"/>
            <stop offset="1" stop-color="#42844B"/>
        </linearGradient>
        <linearGradient id="paint2_linear_5954_176294" x1="24.219" y1="8.5796" x2="24.219" y2="31.7394" gradientUnits="userSpaceOnUse">
            <stop stop-color="#87F696"/>
            <stop offset="1" stop-color="#42844B"/>
        </linearGradient>
    </defs>
</svg>