<svg width="108" height="107" viewBox="0 0 108 107" fill="none" xmlns="http://www.w3.org/2000/svg">
    <path fill-rule="evenodd" clip-rule="evenodd" d="M56.4368 11.7416C51.4998 16.2896 50.9485 16.3391 45.5503 12.7166C40.4978 9.32619 38.3947 9.75452 36.8988 14.479C35.9132 17.592 34.1313 20.4435 32.8332 20.9861C31.9118 21.3708 30.8743 21.3795 28.9382 21.0186C25.8854 20.45 22.3861 20.3871 21.6061 20.8875C20.4973 21.5983 20.1257 23.7679 20.3922 27.9769C20.7456 33.554 20.2808 34.2125 14.803 35.8974C10.9625 37.0783 8.72889 38.5715 8.72889 39.9578C8.72889 40.3261 9.57439 42.2362 10.6073 44.2022C13.0178 48.7895 13.3075 49.8553 12.5971 51.5191C12.2824 52.2556 10.6691 54.1547 9.01224 55.7396C6.49211 58.15 6 58.8663 6 60.1247C6 61.7881 6.72771 62.6016 11.1417 65.8737C15.2282 68.9023 15.2623 69.2009 12.4156 77.0282C10.816 81.4276 11.6679 82.4085 17.9712 83.4248C21.8994 84.0581 23.6391 84.8675 24.1849 86.3158C24.4096 86.911 24.7366 89.1806 24.9121 91.359C25.4193 97.6656 26.6145 98.5058 32.4525 96.6604C34.038 96.1591 36.1697 95.7464 37.1894 95.7432C39.3716 95.7363 40.1557 96.449 42.5754 100.637C44.7608 104.422 46.0779 105.461 47.884 104.826C48.6335 104.563 50.3122 103.377 51.6148 102.191C54.7462 99.3395 56.0311 98.4888 57.2059 98.4888C57.7412 98.4888 59.8957 99.6202 61.9937 101.003C67.8572 104.867 69.2935 104.474 71.4866 98.4044C73.4364 93.009 74.7658 92.0501 79.0861 92.9246C82.012 93.5172 85.5632 93.5951 86.36 93.0838C87.4388 92.3927 87.7968 90.2813 87.5535 86.0498C87.2296 80.4168 87.7104 79.7248 93.099 78.0674C95.1953 77.4226 97.3638 76.5251 97.9178 76.073C99.3477 74.9054 99.1485 72.9036 97.2838 69.6952C95.1884 66.0906 94.5512 64.0494 95.0911 62.6695C95.3272 62.0655 96.9704 60.1325 98.7433 58.3738C103.378 53.775 103.202 52.5464 97.3388 48.5708C92.9421 45.5899 92.6105 44.2224 94.9046 38.5298C96.2127 35.2843 96.361 33.2848 95.3685 32.2841C94.5017 31.41 93.9427 31.2385 89.299 30.4236C83.8417 29.466 83.6971 29.2748 82.9139 21.9922C82.2903 16.1914 81.2124 15.5095 75.5136 17.3109C69.7574 19.1301 68.4612 18.6523 65.5809 13.648C62.3212 7.98524 60.8476 7.67798 56.4368 11.7416ZM76.8253 38.9723C78.3953 40.5416 79.6801 42.0413 79.6801 42.3054C79.6801 42.8012 47.3468 75.5589 46.857 75.5589C46.4609 75.5589 30.1052 59.0681 30.1052 58.6687C30.1052 58.1844 35.9542 52.4125 36.1998 52.6546C36.3135 52.7665 38.6521 55.0769 41.3965 57.7882C44.1413 60.4994 46.5623 62.7181 46.777 62.7181C46.9912 62.7181 53.0993 56.7334 60.3505 49.4187C67.6016 42.1041 73.6325 36.1194 73.7525 36.1194C73.8721 36.1194 75.2552 37.4034 76.8253 38.9723Z" fill="#87F696"/>
</svg>
