<svg width="126" height="98" viewBox="0 0 126 98" fill="none" xmlns="http://www.w3.org/2000/svg">
    <path fill-rule="evenodd" clip-rule="evenodd" d="M124.5 49C124.5 82.9655 96.9655 110.5 63 110.5C29.0345 110.5 1.5 82.9655 1.5 49C1.5 15.0345 29.0345 -12.5 63 -12.5C96.9655 -12.5 124.5 15.0345 124.5 49ZM126 49C126 83.7939 97.7939 112 63 112C28.2061 112 0 83.7939 0 49C0 14.2061 28.2061 -14 63 -14C97.7939 -14 126 14.2061 126 49ZM62.25 80.7095V76.4909H63.75V80.7095C80.6717 80.3168 94.3168 66.6717 94.7095 49.75H91.6364V48.25H94.7095C94.3168 31.3283 80.6717 17.6832 63.75 17.2905V21.5091H62.25V17.2905C45.3283 17.6832 31.6832 31.3283 31.2905 48.25H35.5091V49.75H31.2905C31.6832 66.6717 45.3283 80.3168 62.25 80.7095ZM96.2099 48.25C95.8167 30.4998 81.5002 16.1833 63.75 15.7901V11.2H62.25V15.7901C44.4998 16.1833 30.1833 30.4998 29.7901 48.25H25.2L25.2 49.75H29.7901C30.1833 67.5002 44.4998 81.8167 62.25 82.2099V86.8H63.75V82.2099C81.5002 81.8167 95.8167 67.5002 96.2099 49.75H101.945V48.25H96.2099ZM63 68.1182C73.5587 68.1182 82.1182 59.5587 82.1182 49C82.1182 38.4413 73.5587 29.8818 63 29.8818C52.4413 29.8818 43.8818 38.4413 43.8818 49C43.8818 59.5587 52.4413 68.1182 63 68.1182ZM63 69.6182C74.3871 69.6182 83.6182 60.3871 83.6182 49C83.6182 37.6129 74.3871 28.3818 63 28.3818C51.6129 28.3818 42.3818 37.6129 42.3818 49C42.3818 60.3871 51.6129 69.6182 63 69.6182ZM63 51.2909C64.2652 51.2909 65.2909 50.2652 65.2909 49C65.2909 47.7348 64.2652 46.7091 63 46.7091C61.7348 46.7091 60.7091 47.7348 60.7091 49C60.7091 50.2652 61.7348 51.2909 63 51.2909Z" fill="url(#paint0_linear_6586_81097)" fill-opacity="0.4"/>
    <defs>
        <linearGradient id="paint0_linear_6586_81097" x1="20.6182" y1="0.318179" x2="116.836" y2="105.127" gradientUnits="userSpaceOnUse">
            <stop stop-color="#FF37D3"/>
            <stop offset="1" stop-color="#FF37D3" stop-opacity="0"/>
        </linearGradient>
    </defs>
</svg>
