<svg width="151" height="98" viewBox="0 0 151 98" fill="none" xmlns="http://www.w3.org/2000/svg">
    <path d="M126.667 103.761V104.511H127.417V103.761H126.667ZM24.3438 103.761H23.5938V104.511H24.3438V103.761ZM75.5052 34.7239C88.4775 34.7239 98.9936 24.2077 98.9936 11.2355H97.4936C97.4936 23.3793 87.6491 33.2239 75.5052 33.2239V34.7239ZM52.0168 11.2355C52.0168 24.2077 62.533 34.7239 75.5052 34.7239V33.2239C63.3614 33.2239 53.5168 23.3793 53.5168 11.2355H52.0168ZM75.5052 -12.2529C62.533 -12.2529 52.0168 -1.73682 52.0168 11.2355H53.5168C53.5168 -0.908392 63.3614 -10.7529 75.5052 -10.7529V-12.2529ZM98.9936 11.2355C98.9936 -1.73682 88.4775 -12.2529 75.5052 -12.2529V-10.7529C87.6491 -10.7529 97.4936 -0.908391 97.4936 11.2355H98.9936ZM127.417 103.761C127.417 75.0912 104.175 51.8496 75.5051 51.8496V53.3496C103.346 53.3496 125.917 75.9196 125.917 103.761H127.417ZM24.3438 104.511H126.667V103.011H24.3438V104.511ZM75.5051 51.8496C46.8353 51.8496 23.5938 75.0912 23.5938 103.761H25.0938C25.0938 75.9196 47.6638 53.3496 75.5051 53.3496V51.8496Z" fill="url(#paint0_linear_6586_81112)" fill-opacity="0.4"/>
    <defs>
        <linearGradient id="paint0_linear_6586_81112" x1="48" y1="-6.49902" x2="116.5" y2="104.001" gradientUnits="userSpaceOnUse">
            <stop stop-color="#44F4FF"/>
            <stop offset="1" stop-color="#37E7FF" stop-opacity="0.15"/>
        </linearGradient>
    </defs>
</svg>
