<svg width="164" height="98" viewBox="0 0 164 98" fill="none" xmlns="http://www.w3.org/2000/svg">
    <path d="M154.231 43.5981C135.173 11.4618 110.969 -4.91699 82.0004 -4.91699C52.3163 -4.91699 27.6476 12.2711 8.38698 45.9823C7.86204 46.9013 7.58594 47.9413 7.58594 48.9997C7.58594 50.058 7.86203 51.098 8.38694 52.017L154.231 43.5981ZM154.231 43.5981C154.232 43.5992 154.232 43.6002 154.233 43.6012M154.231 43.5981L154.233 43.6012M154.233 43.6012L155.713 46.1515L155.993 46.7737L156.176 47.2795L156.255 47.5907L156.342 48.0994L156.41 48.7196V49.383L156.323 50.076C156.285 50.2886 156.235 50.4991 156.174 50.7065L155.928 51.3879L155.705 51.8522L155.609 52.0329C136.805 84.9283 112.848 102.084 84.1237 102.889C84.1219 102.889 84.1201 102.889 84.1183 102.889L82.0004 102.916C81.9988 102.916 81.9972 102.916 81.9956 102.916C52.3137 102.914 27.6466 85.7265 8.38698 52.017L154.233 43.6012ZM82.0004 27.7497C76.3646 27.7497 70.9595 29.9885 66.9744 33.9737C62.9892 37.9588 60.7504 43.3638 60.7504 48.9997C60.7504 54.6355 62.9892 60.0406 66.9744 64.0257C70.9595 68.0108 76.3646 70.2497 82.0004 70.2497C87.6363 70.2497 93.0413 68.0108 97.0264 64.0257C101.012 60.0406 103.25 54.6355 103.25 48.9997C103.25 43.3638 101.012 37.9588 97.0264 33.9737C93.0413 29.9885 87.6363 27.7497 82.0004 27.7497Z" stroke="url(#paint0_linear_6586_81121)" stroke-opacity="0.4" stroke-width="1.5"/>
    <defs>
        <linearGradient id="paint0_linear_6586_81121" x1="-0.519086" y1="26.1656" x2="149.468" y2="90.52" gradientUnits="userSpaceOnUse">
            <stop stop-color="#87F696"/>
            <stop offset="1" stop-color="#87F696" stop-opacity="0"/>
        </linearGradient>
    </defs>
</svg>
