<svg width="10" height="12" viewBox="0 0 10 12" fill="none" xmlns="http://www.w3.org/2000/svg">
    <path d="M0.736 11.5V9.644H2.208V2.156H0.736V0.299999H6.496C7.17867 0.299999 7.77067 0.417333 8.272 0.651999C8.784 0.876 9.17867 1.20133 9.456 1.628C9.744 2.044 9.888 2.54533 9.888 3.132V3.292C9.888 3.804 9.792 4.22533 9.6 4.556C9.408 4.876 9.17867 5.12667 8.912 5.308C8.656 5.47867 8.41067 5.60133 8.176 5.676V5.964C8.41067 6.028 8.66667 6.15067 8.944 6.332C9.22133 6.50267 9.456 6.75333 9.648 7.084C9.85067 7.41467 9.952 7.84667 9.952 8.38V8.54C9.952 9.15867 9.808 9.692 9.52 10.14C9.232 10.5773 8.832 10.9133 8.32 11.148C7.81867 11.3827 7.232 11.5 6.56 11.5H0.736ZM4.32 9.58H6.304C6.76267 9.58 7.13067 9.468 7.408 9.244C7.696 9.02 7.84 8.7 7.84 8.284V8.124C7.84 7.708 7.70133 7.388 7.424 7.164C7.14667 6.94 6.77333 6.828 6.304 6.828H4.32V9.58ZM4.32 4.908H6.272C6.70933 4.908 7.06667 4.796 7.344 4.572C7.632 4.348 7.776 4.03867 7.776 3.644V3.484C7.776 3.07867 7.63733 2.76933 7.36 2.556C7.08267 2.332 6.72 2.22 6.272 2.22H4.32V4.908Z" fill="#CECECE"/>
</svg>
