<svg width="5" height="13" viewBox="0 0 5 13" fill="none" xmlns="http://www.w3.org/2000/svg">
    <path d="M0.464 12.5L2.16 3.956H4.16L2.464 12.5H0.464ZM3.616 2.548C3.25333 2.548 2.96 2.44133 2.736 2.228C2.52267 2.004 2.416 1.73733 2.416 1.428C2.416 1.06533 2.53867 0.761333 2.784 0.516C3.04 0.270666 3.37067 0.148 3.776 0.148C4.128 0.148 4.416 0.254666 4.64 0.467999C4.864 0.670666 4.976 0.921333 4.976 1.22C4.976 1.61467 4.85333 1.93467 4.608 2.18C4.36267 2.42533 4.032 2.548 3.616 2.548Z" fill="#CECECE"/>
</svg>
