<svg width="15" height="15" viewBox="0 0 15 15" fill="none" xmlns="http://www.w3.org/2000/svg">
    <path d="M2.86208 12.0574C1.89979 11.0783 1.91347 9.50017 2.89259 8.53788L5.18294 6.28691L4.11373 5.19899L1.82338 7.44996C0.243044 9.00313 0.220992 11.5463 1.77416 13.1266C3.32733 14.7069 5.87047 14.729 7.45081 13.1758L9.74115 10.9249L8.67194 9.83695L6.3816 12.0879C5.40247 13.0502 3.82436 13.0365 2.86208 12.0574ZM5.77242 10.3227L10.3531 5.8208L9.22764 4.67563L4.64694 9.17757L5.77242 10.3227ZM7.54926 1.82254L5.25891 4.07351L6.32812 5.16142L8.61847 2.91045C9.59759 1.94817 11.1757 1.96185 12.138 2.94097C13.1003 3.9201 13.0866 5.49821 12.1075 6.46049L9.81712 8.71146L10.8863 9.79938L13.1767 7.54841C14.757 5.99524 14.7791 3.4521 13.2259 1.87176C11.6727 0.291423 9.1296 0.269371 7.54926 1.82254Z" fill="#CECECE"/>
</svg>
