<svg width="13" height="13" viewBox="0 0 13 13" fill="none" xmlns="http://www.w3.org/2000/svg">
    <path d="M4.125 1.30469H12.25" stroke="#CECECE"/>
    <path d="M4.125 6.42969H12.25" stroke="#CECECE"/>
    <path d="M4.125 11.4297H12.25" stroke="#CECECE"/>
    <path d="M1.476 2.52969V0.651688H1.428L1.083 1.35969H0.75L1.215 0.429688H1.791V2.52969H1.476Z" fill="#CECECE"/>
    <path d="M0.75 7.57169V7.33469C0.75 7.18869 0.775 7.06869 0.825 6.97469C0.875 6.88069 0.946 6.80469 1.038 6.74669C1.132 6.68669 1.245 6.63669 1.377 6.59669L1.56 6.53969C1.642 6.51369 1.712 6.48169 1.77 6.44369C1.83 6.40569 1.876 6.35869 1.908 6.30269C1.94 6.24469 1.956 6.17769 1.956 6.10169V6.08969C1.956 5.97169 1.916 5.87969 1.836 5.81369C1.756 5.74569 1.651 5.71169 1.521 5.71169C1.387 5.71169 1.278 5.74769 1.194 5.81969C1.112 5.89169 1.071 5.99769 1.071 6.13769V6.18569H0.759V6.14069C0.759 5.98869 0.792 5.86069 0.858 5.75669C0.924 5.65069 1.015 5.56969 1.131 5.51369C1.247 5.45769 1.377 5.42969 1.521 5.42969C1.665 5.42969 1.793 5.45669 1.905 5.51069C2.019 5.56469 2.108 5.64069 2.172 5.73869C2.238 5.83669 2.271 5.95169 2.271 6.08369V6.11069C2.271 6.24669 2.244 6.35969 2.19 6.44969C2.136 6.53969 2.061 6.61369 1.965 6.67169C1.871 6.72969 1.762 6.77869 1.638 6.81869L1.461 6.87269C1.367 6.90069 1.291 6.93169 1.233 6.96569C1.177 6.99769 1.135 7.03669 1.107 7.08269C1.081 7.12869 1.068 7.18769 1.068 7.25969V7.28969H2.253V7.57169H0.75Z" fill="#CECECE"/>
    <path d="M1.542 12.5717C1.388 12.5717 1.251 12.5437 1.131 12.4877C1.011 12.4317 0.917 12.3507 0.849 12.2447C0.783 12.1387 0.75 12.0127 0.75 11.8667V11.8127H1.065V11.8607C1.065 11.9927 1.108 12.0977 1.194 12.1757C1.282 12.2517 1.398 12.2897 1.542 12.2897C1.686 12.2897 1.798 12.2537 1.878 12.1817C1.958 12.1097 1.998 12.0187 1.998 11.9087V11.8817C1.998 11.8037 1.979 11.7407 1.941 11.6927C1.903 11.6447 1.852 11.6097 1.788 11.5877C1.724 11.5637 1.652 11.5517 1.572 11.5517H1.191V11.1887L1.929 10.7537V10.7117H0.801V10.4297H2.271V10.8557L1.566 11.2757V11.3177H1.695C1.801 11.3177 1.901 11.3377 1.995 11.3777C2.089 11.4177 2.165 11.4787 2.223 11.5607C2.283 11.6427 2.313 11.7467 2.313 11.8727V11.9087C2.313 12.0427 2.281 12.1597 2.217 12.2597C2.153 12.3577 2.063 12.4347 1.947 12.4907C1.831 12.5447 1.696 12.5717 1.542 12.5717Z" fill="#CECECE"/>
</svg>
