<svg width="9" height="13" viewBox="0 0 9 13" fill="none" xmlns="http://www.w3.org/2000/svg">
    <path d="M4.36 12.224C3.47467 12.224 2.712 12.064 2.072 11.744C1.44267 11.424 0.952 10.9653 0.6 10.368C0.258667 9.76 0.0880001 9.024 0.0880001 8.16V0.799999H1.832V8.208C1.832 8.99733 2.05067 9.60533 2.488 10.032C2.92533 10.4587 3.54933 10.672 4.36 10.672C5.17067 10.672 5.79467 10.4587 6.232 10.032C6.66933 9.60533 6.888 8.99733 6.888 8.208V0.799999H8.616V8.16C8.616 9.024 8.44533 9.76 8.104 10.368C7.76267 10.9653 7.272 11.424 6.632 11.744C5.992 12.064 5.23467 12.224 4.36 12.224Z" fill="#CECECE"/>
    <path d="M-1 14H9.704V14.8H-1V14Z" fill="#CECECE"/>
</svg>
