<svg width="26" height="26" viewBox="0 0 26 26" fill="none" xmlns="http://www.w3.org/2000/svg">
    <path fill-rule="evenodd" clip-rule="evenodd" d="M12.5217 23.5703C18.6237 23.5703 23.5703 18.6237 23.5703 12.5217C23.5703 6.41977 18.6237 1.47315 12.5217 1.47315C6.41977 1.47315 1.47315 6.41977 1.47315 12.5217C1.47315 18.6237 6.41977 23.5703 12.5217 23.5703ZM12.5217 25.0435C19.4373 25.0435 25.0435 19.4373 25.0435 12.5217C25.0435 5.60617 19.4373 0 12.5217 0C5.60617 0 0 5.60617 0 12.5217C0 19.4373 5.60617 25.0435 12.5217 25.0435Z" fill="#87F696"/>
    <path fill-rule="evenodd" clip-rule="evenodd" d="M12.5244 2.94531L13.1952 4.3087L18.3991 14.8858H20.3355L18.7987 15.6981L20.4472 19.0486H18.7818L17.477 16.3966L12.8763 18.8281L12.5266 19.0129L12.177 18.8281L7.57267 16.3947L6.26694 19.0486H4.60156L6.25097 15.6962L4.71775 14.8858H6.64964L11.8536 4.3087L12.5244 2.94531ZM8.23207 15.0545L12.5266 17.3242L16.8176 15.0563L12.5244 6.33024L8.23207 15.0545Z" fill="#87F696"/>
    <path d="M13.3827 12.7183C13.3048 12.5902 13.1972 12.4919 13.0597 12.4232C12.9268 12.3546 12.7688 12.3203 12.5855 12.3203C12.2464 12.3203 11.9784 12.4301 11.7814 12.6497C11.5889 12.8693 11.4927 13.1644 11.4927 13.535C11.4927 13.9514 11.5958 14.2694 11.802 14.489C12.0127 14.704 12.3174 14.8115 12.7161 14.8115C13.188 14.8115 13.5248 14.5988 13.7264 14.1733H12.3724V13.2056H14.8879V14.5096C14.7825 14.7658 14.6267 15.006 14.4205 15.2302C14.2189 15.4543 13.9623 15.6396 13.6508 15.786C13.3392 15.9279 12.9841 15.9988 12.5855 15.9988C12.0998 15.9988 11.6691 15.8959 11.2934 15.69C10.9223 15.4795 10.6336 15.189 10.4274 14.8184C10.2258 14.4432 10.125 14.0154 10.125 13.535C10.125 13.0592 10.2258 12.636 10.4274 12.2654C10.6336 11.8902 10.9223 11.5997 11.2934 11.3938C11.6645 11.1834 12.0929 11.0781 12.5786 11.0781C13.188 11.0781 13.692 11.2245 14.0906 11.5173C14.4893 11.8102 14.7367 12.2105 14.8329 12.7183H13.3827Z" fill="#87F696"/>
</svg>
